<svg width="59" height="59" viewBox="0 0 59 59" fill="none" xmlns="http://www.w3.org/2000/svg">
<g clip-path="url(#clip0_2404_2)">
<path d="M19.6472 19.4105C14.45 24.6077 14.6383 33.3284 20.0648 38.755C25.4914 44.1816 34.2121 44.3699 39.4093 39.1726C44.6066 33.9754 44.4183 25.2547 38.9917 19.8281C33.5651 14.4015 24.8445 14.2133 19.6472 19.4105ZM17.2231 16.9864C23.7521 10.4574 34.4963 10.6894 41.3134 17.5064C48.1305 24.3235 48.3624 35.0678 41.8335 41.5967C35.3045 48.1257 24.5602 47.8937 17.7432 41.0767C10.9261 34.2596 10.6941 23.5153 17.2231 16.9864ZM31.1655 26.4976L36.2604 26.5956L29.3203 19.6554L22.6735 26.3022L27.7688 26.4243L28.0396 38.4095L31.4122 38.4823" fill="black"/>
</g>
<defs>
<clipPath id="clip0_2404_2">
<rect width="40" height="41.7652" fill="white" transform="translate(0.619873 28.668) rotate(-45)"/>
</clipPath>
</defs>
</svg>
