<svg xmlns="http://www.w3.org/2000/svg">
    <!-- Логотип -->
    <symbol version="1.0" xmlns="http://www.w3.org/2000/svg" preserveAspectRatio="xMidYMid meet" viewBox="0 0 175 175" id="logo">
        <g fill="#ffffff">
        <path d="M 87.90 161.05 c -0.08 -0.13 -0.08 -1.58 -0.03 -3.25 0.08 -1.73 0.03 -3.08 -0.10 -3.15 -0.13 -0.10 -0.55 0.35 -0.95 0.95 -1.45 2.22 -3.28 4.80 -3.65 5.13 -0.22 0.17 -0.60 0.28 -0.85 0.22 -0.43 -0.08 -0.45 -0.40 -0.38 -4.07 0.10 -4.47 0.17 -4.95 0.75 -4.82 0.38 0.08 0.43 0.45 0.32 3.40 -0.10 3.53 0.08 4 0.90 2.47 0.25 -0.45 1.23 -1.92 2.17 -3.25 1.35 -1.90 1.85 -2.42 2.33 -2.42 0.57 0 0.57 0 0.52 4.43 -0.08 3.90 -0.13 4.45 -0.50 4.53 -0.22 0.05 -0.47 -0.03 -0.55 -0.15 z "></path>
        <path d="M 92.18 160.82 c -0.22 -0.35 -0.98 -8.10 -0.82 -8.48 0.08 -0.20 0.30 -0.35 0.50 -0.35 0.25 0 0.40 0.45 0.52 1.58 0.28 2.65 0.13 2.50 2.55 2.35 1.17 -0.08 2.22 -0.22 2.33 -0.32 0.13 -0.13 0.10 -1.02 -0.05 -2.05 -0.28 -1.85 -0.13 -2.47 0.50 -2.08 0.35 0.22 0.95 4.07 1.10 7.03 0.05 1.52 0 1.88 -0.30 1.88 -0.40 0 -0.68 -0.70 -0.88 -2.47 -0.15 -1.20 -0.17 -1.20 -0.93 -1.05 -0.43 0.08 -1.42 0.15 -2.25 0.15 -1.50 0 -1.50 0 -1.42 1.92 0.08 1.65 0.05 1.95 -0.32 2.03 -0.22 0.05 -0.45 -0.03 -0.52 -0.13 z "></path>
        <path d="M 75.32 160.13 c -1.27 -0.15 -2.47 -0.45 -2.70 -0.63 -0.68 -0.57 -0.13 -0.82 1.52 -0.68 1.60 0.15 1.60 0.15 1.60 -0.55 0 -0.40 0.22 -2.05 0.50 -3.65 0.28 -1.60 0.50 -3.03 0.50 -3.15 0 -0.38 0.75 -0.25 0.90 0.13 0.08 0.20 -0.10 1.90 -0.43 3.75 -0.30 1.85 -0.47 3.53 -0.40 3.72 0.08 0.20 0.65 0.43 1.40 0.52 0.88 0.13 1.27 0.28 1.27 0.52 0 0.45 -0.90 0.45 -4.18 0 z "></path>
        <path d="M 104.55 158.82 c -0.17 -0.05 -0.50 -0.47 -0.73 -0.90 -0.22 -0.45 -0.70 -1.20 -1.08 -1.67 -3.20 -4.15 -3.67 -5.03 -2.88 -5.35 0.25 -0.10 0.65 0.22 1.15 0.93 0.43 0.57 0.95 1.13 1.17 1.20 0.22 0.08 1.10 -0.03 1.92 -0.25 1.50 -0.40 1.50 -0.40 1.67 -1.75 0.17 -1.48 0.45 -1.92 1.08 -1.67 0.30 0.10 0.38 0.32 0.28 0.73 -0.08 0.30 -0.32 1.95 -0.52 3.67 -0.60 4.82 -0.68 5.13 -1.25 5.18 -0.28 0.03 -0.65 -0.03 -0.82 -0.10 z  m 0.82 -3.35 c 0.10 -1.10 0.13 -2.05 0.08 -2.10 -0.13 -0.13 -2.25 0.60 -2.53 0.85 -0.10 0.13 0.08 0.52 0.40 0.93 0.32 0.40 0.80 1.10 1.02 1.55 0.22 0.43 0.50 0.80 0.63 0.80 0.13 0 0.30 -0.90 0.40 -2.03 z "></path>
        <path d="M 67.32 158.32 c -0.17 -0.05 -0.32 -0.43 -0.32 -0.77 0 -0.38 -0.22 -2.20 -0.50 -4.05 -0.28 -1.85 -0.50 -3.75 -0.50 -4.18 0 -0.77 0.03 -0.80 0.63 -0.52 0.65 0.30 0.82 0.68 0.93 2.17 0.08 0.80 0.15 0.88 1.55 1.30 1.77 0.57 2.20 0.47 2.88 -0.65 0.40 -0.70 0.68 -0.88 1.27 -0.88 0.75 0 0.75 0 0.32 0.70 -0.22 0.38 -1 1.40 -1.73 2.30 -0.70 0.90 -1.73 2.25 -2.25 3 -1.25 1.77 -1.45 1.92 -2.28 1.58 z  m 1.92 -2.88 c 0.55 -0.85 1 -1.63 1 -1.73 0 -0.22 -0.45 -0.35 -1.85 -0.60 -0.98 -0.15 -0.98 -0.15 -0.82 0.80 0.10 0.52 0.17 1.42 0.17 2.03 0 0.57 0.10 1.05 0.25 1.05 0.13 0 0.70 -0.70 1.25 -1.55 z "></path>
        <path d="M 111.28 156.57 c -0.17 -0.40 -0.80 -1.88 -1.40 -3.33 -0.60 -1.45 -1.27 -3.05 -1.48 -3.55 -0.40 -0.95 -0.40 -0.95 0.20 -0.95 0.70 0 0.98 0.50 2.28 4.07 0.45 1.27 0.77 1.85 0.90 1.63 0.10 -0.17 0.10 -1.80 -0.03 -3.58 -0.13 -1.77 -0.15 -3.33 -0.10 -3.42 0.38 -0.60 1.23 -0.03 2.90 1.95 1 1.17 2.13 2.50 2.53 2.95 0.68 0.77 0.68 0.77 0.05 -0.60 -0.35 -0.75 -0.63 -1.52 -0.63 -1.67 0 -0.17 -0.35 -1.13 -0.80 -2.10 -0.65 -1.48 -0.73 -1.80 -0.43 -2 0.52 -0.32 0.73 -0.28 0.90 0.22 0.20 0.57 1.75 4.32 2.53 6.15 0.63 1.42 0.63 1.48 0.17 1.80 -0.80 0.60 -1.27 0.40 -2.42 -1 -0.60 -0.73 -1.75 -2.05 -2.53 -2.90 -1.42 -1.58 -1.42 -1.58 -1.25 2.20 0.15 3.45 0.10 3.85 -0.30 4.30 -0.60 0.65 -0.73 0.63 -1.10 -0.17 z "></path>
        <path d="M 60.38 156.02 c -3.50 -1.58 -3.85 -1.77 -4.13 -2.65 -0.60 -1.80 0.68 -3.63 2.50 -3.63 0.52 0 1.55 0.30 2.33 0.70 1.40 0.70 1.40 0.70 2.15 -1 0.77 -1.73 0.98 -1.90 1.45 -1.42 0.25 0.25 -0.15 1.45 -1.77 5.05 -0.35 0.82 -0.75 1.90 -0.90 2.45 -0.30 1.10 -0.28 1.10 -1.63 0.50 z  m 1.13 -2.42 c 0.28 -0.63 0.50 -1.23 0.50 -1.33 0 -0.30 -1.75 -1.02 -2.85 -1.17 -1.25 -0.17 -1.98 0.43 -1.85 1.58 0.05 0.55 0.35 0.85 1.33 1.38 1.83 1 2.30 0.93 2.88 -0.45 z "></path>
        <path d="M 121.43 152.45 c -0.10 -0.32 -0.30 -2.53 -0.45 -4.90 -0.30 -4.32 -0.30 -4.32 0.32 -4.97 0.47 -0.47 0.77 -0.57 1.20 -0.45 0.55 0.17 0.52 0.20 -0.28 1.02 -1.42 1.48 -0.90 2.03 4.75 5.15 0.85 0.47 1.05 1.20 0.32 1.20 -0.25 0 -1.30 -0.55 -2.33 -1.20 -3.33 -2.17 -3.03 -2.33 -2.92 1.35 0.05 2.17 0 3.20 -0.20 3.28 -0.15 0.05 -0.35 -0.15 -0.43 -0.47 z "></path>
        <path d="M 52.22 152.07 c -0.38 -0.35 -0.35 -0.47 0.43 -1.65 0.47 -0.73 0.85 -1.40 0.85 -1.55 0 -0.25 -3.42 -2.38 -3.83 -2.38 -0.08 0 -0.52 0.68 -0.98 1.50 -0.82 1.50 -1.17 1.75 -1.65 1.17 -0.20 -0.22 -0.03 -0.68 0.60 -1.67 0.50 -0.75 1.33 -2.15 1.88 -3.13 0.52 -0.95 1.23 -2.08 1.55 -2.47 0.60 -0.75 0.60 -0.75 0.90 -0.17 0.25 0.45 0.25 0.65 -0.05 0.98 -0.47 0.57 -1.75 2.83 -1.63 2.92 0.03 0.05 0.95 0.55 2 1.13 2.13 1.15 1.88 1.27 3.58 -1.67 0.52 -0.90 0.98 -1.05 1.23 -0.43 0.15 0.43 -0.88 2.35 -2.75 5.25 -0.47 0.73 -0.95 1.60 -1.10 1.95 -0.28 0.73 -0.45 0.77 -1.02 0.22 z "></path>
        <path d="M 128.75 148 c -0.30 -0.22 -0.20 -0.40 0.63 -1.15 0.55 -0.47 1.30 -1.05 1.70 -1.25 0.68 -0.35 0.90 -1.17 0.43 -1.48 -0.15 -0.10 -0.68 -0.80 -1.15 -1.58 -0.50 -0.77 -1.35 -1.95 -1.88 -2.58 -1.08 -1.27 -1.15 -1.52 -0.65 -1.95 0.28 -0.20 0.65 0.15 1.83 1.65 0.80 1.05 1.75 2.25 2.10 2.67 1.67 2.08 1.80 2.35 1.35 3.03 -0.22 0.35 -0.50 0.63 -0.60 0.63 -0.10 0 -0.88 0.50 -1.70 1.13 -1.67 1.25 -1.55 1.20 -2.05 0.88 z "></path>
        <path d="M 80.38 147.48 c -2.45 -0.28 -7.95 -1.40 -9.75 -1.95 -0.82 -0.28 -2.47 -0.77 -3.65 -1.13 -1.98 -0.60 -8.77 -3.85 -9.35 -4.45 -0.17 -0.17 -0.17 -0.22 0 -0.15 1.27 0.70 4.97 2.30 5.97 2.60 0.70 0.22 1.90 0.60 2.65 0.88 1.60 0.55 4.60 1.27 7.25 1.75 1.25 0.22 3.75 0.35 7.38 0.35 4.55 -0.03 6.03 -0.13 8.52 -0.57 12.05 -2.20 22.60 -8.55 30.23 -18.17 1.55 -1.98 3.88 -5.40 3.88 -5.72 0 -0.08 0.40 -0.77 0.88 -1.58 1 -1.70 2.92 -6.35 3.78 -9.20 0.35 -1.10 0.93 -3.58 1.27 -5.50 0.60 -3.10 0.68 -4.07 0.65 -8.63 0 -4.78 -0.05 -5.40 -0.80 -9 -1 -4.85 -2.13 -8.20 -4.15 -12.45 -2.30 -4.78 -4.28 -7.68 -8.07 -11.90 -1.25 -1.40 -1.50 -1.83 -1.23 -2.03 0.17 -0.13 0.93 -0.93 1.67 -1.75 2.10 -2.35 5.35 -5.93 8.63 -9.45 1.65 -1.77 3.28 -3.58 3.63 -3.95 0.63 -0.73 0.63 -0.73 2.45 1.38 6.45 7.45 10.15 13.88 12.77 22.23 1.92 6.05 2.55 10.02 2.70 16.98 0.20 8.18 -0.52 13.35 -2.83 20.33 -1.95 5.93 -4.47 10.77 -9.10 17.48 -0.20 0.30 -1.23 1.55 -2.30 2.80 -10.13 11.82 -23.90 19.13 -39.25 20.83 -2.78 0.32 -11.20 0.30 -13.82 0 z "></path>
        <path d="M 43.13 146.48 c -0.10 -0.15 0.28 -0.77 0.80 -1.42 0.55 -0.65 1.05 -1.30 1.15 -1.45 0.08 -0.15 -0.45 -0.90 -1.20 -1.65 -1.55 -1.55 -1.83 -2.33 -1.33 -3.65 0.28 -0.73 0.55 -1 1.38 -1.27 0.93 -0.32 1.13 -0.32 2 0.08 0.52 0.25 1.58 1 2.33 1.65 1.05 0.95 1.33 1.33 1.13 1.60 -0.13 0.20 -1.35 1.73 -2.70 3.38 -2.35 2.90 -3.10 3.50 -3.55 2.75 z  m 3.97 -5.22 c 0.50 -0.55 0.90 -1.10 0.90 -1.25 0 -0.13 -0.30 -0.40 -0.70 -0.60 -0.38 -0.20 -0.90 -0.57 -1.15 -0.88 -0.90 -1 -2.65 -0.38 -2.65 0.98 0 0.52 0.30 0.95 1.15 1.73 0.65 0.57 1.25 1.02 1.35 1.02 0.10 0 0.60 -0.45 1.10 -1 z "></path>
        <path d="M 37.30 141.52 c -0.32 -0.20 0.40 -1.23 3.83 -5.25 1.48 -1.77 1.95 -2.08 2.20 -1.42 0.15 0.35 -0.60 1.38 -3.55 4.97 -1.60 1.92 -1.85 2.10 -2.47 1.70 z "></path>
        <path d="M 131.57 139.32 c -0.17 -0.08 -0.32 -0.20 -0.32 -0.32 0 -0.32 2.08 -2.25 2.42 -2.25 0.68 0 0.57 0.60 -0.20 1.42 -0.98 1 -1.48 1.30 -1.90 1.15 z "></path>
        <path d="M 31.80 138.70 c -0.17 -0.22 -0.28 -0.65 -0.25 -0.98 0.08 -0.50 -0.08 -0.63 -0.85 -0.82 -1.05 -0.25 -1.17 -0.50 -0.50 -0.85 1.08 -0.57 2.38 0.77 2.10 2.17 -0.15 0.73 -0.22 0.77 -0.50 0.47 z "></path>
        <path d="M 34.25 138.27 c 0 -0.43 1.38 -1.85 3.72 -3.85 1.13 -0.93 1.13 -0.93 -0.13 -0.93 -0.68 0.03 -2.45 0.22 -3.97 0.47 -2 0.32 -2.90 0.38 -3.30 0.20 -0.32 -0.15 -0.57 -0.35 -0.57 -0.45 0 -0.10 0.75 -0.85 1.67 -1.65 0.93 -0.80 2.38 -2.10 3.25 -2.90 1.52 -1.40 2.20 -1.67 2.20 -0.93 0 0.20 -1.10 1.33 -2.45 2.50 -1.33 1.17 -2.33 2.15 -2.20 2.20 0.13 0.05 2 -0.15 4.15 -0.43 3.85 -0.50 4.63 -0.47 4.63 0.22 0 0.22 -6.60 6 -6.85 6 -0.08 0 -0.15 -0.20 -0.15 -0.47 z "></path>
        <path d="M143.25 133.80 C 143.25 136.27 141.25 138.27 138.77 138.27 136.32 138.27 134.32 136.27 134.32 133.80 134.32 131.32 136.32 129.35 138.77 129.35 141.25 129.35 143.25 131.32 143.25 133.80 Z M136.90 137.70  M142.18 133.85 C 142.18 132 140.68 130.50 138.82 130.50 136.98 130.50 135.45 132 135.45 133.85 135.45 135.70 136.98 137.20 138.82 137.20 140.68 137.20 142.18 135.70 142.18 133.85 Z M141.27 136.27 "></path>
        <path d="M 54.50 134.20 c 0 -0.15 3.35 -8.68 5.03 -12.82 0.40 -0.95 1.58 -3.95 2.63 -6.63 2.85 -7.30 5.03 -12.85 6.13 -15.50 0.52 -1.30 1.35 -3.45 1.85 -4.75 0.50 -1.30 1.23 -3.15 1.63 -4.13 0.40 -0.95 1.58 -3.88 2.60 -6.50 4.45 -11.38 7.22 -18.38 7.90 -20 0.40 -0.95 1.13 -2.83 1.63 -4.13 0.47 -1.30 1.35 -3.50 1.92 -4.88 0.55 -1.38 1.23 -3.05 1.50 -3.75 0.25 -0.68 0.57 -1.48 0.68 -1.75 1.13 -2.65 2.28 -5.70 2.28 -5.97 0 -0.35 0.40 -0.43 4.68 -0.80 1.90 -0.15 2.53 -0.03 2.10 0.47 -0.22 0.30 -1.90 4.30 -3.40 8.18 -0.45 1.17 -1.17 2.90 -1.63 3.85 -0.43 0.95 -1.13 2.60 -1.50 3.63 -0.40 1.05 -0.98 2.53 -1.33 3.28 -0.35 0.75 -1.05 2.40 -1.55 3.63 -0.52 1.25 -1.38 3.28 -1.88 4.50 -0.52 1.25 -2.05 4.90 -3.40 8.13 -1.33 3.22 -2.90 7.03 -3.50 8.43 -0.60 1.40 -1.10 2.65 -1.10 2.78 0 0.25 -1.27 3.30 -2.78 6.65 -0.55 1.23 -0.95 2.28 -0.88 2.33 0.10 0.13 1.23 -1.90 2.17 -3.97 0.25 -0.50 1.10 -2.13 1.92 -3.63 0.82 -1.48 2.90 -5.45 4.60 -8.82 5.30 -10.43 9.52 -18.63 9.70 -18.88 0.20 -0.28 6.70 -12.93 9.20 -17.92 1.85 -3.70 0.82 -3.28 8.68 -3.83 2.90 -0.22 6.43 -0.50 7.88 -0.63 1.45 -0.15 3.30 -0.25 4.13 -0.25 1.48 0 1.48 0 0.70 0.68 -0.43 0.40 -2.15 2.22 -3.85 4.07 -3.08 3.38 -6.15 6.72 -10.30 11.20 -1.23 1.33 -2.33 2.67 -2.45 3.03 -0.38 0.95 0.15 1.90 2.42 4.32 2.35 2.53 2.85 3.42 2.85 5.18 0 3.28 -2.35 5.45 -11.88 11.02 -6.47 3.83 -9.10 5.80 -10.40 7.93 -0.73 1.15 -0.52 1.67 1.70 4.90 3 4.35 3.70 6.35 2.95 8.38 -1.10 2.95 -5.35 5.97 -16.25 11.55 -5.88 2.97 -6.95 3.65 -9.38 5.72 -2.63 2.28 -4.50 4.35 -10.80 12 -1.77 2.10 -3.20 3.80 -3.20 3.72 z "></path>
        <path d="M 143.88 129.45 c -4.28 -2.83 -4.72 -3.20 -4.30 -3.65 0.32 -0.30 0.60 -0.22 2.08 0.68 0.93 0.57 1.75 1.02 1.85 1.02 0.08 0 0.52 -0.63 0.98 -1.38 0.45 -0.75 0.98 -1.48 1.17 -1.65 0.20 -0.15 0.35 -0.38 0.35 -0.45 0 -0.10 -0.73 -0.65 -1.60 -1.25 -1.70 -1.13 -2.15 -1.70 -1.50 -1.95 0.45 -0.17 1.83 0.55 4.22 2.28 3.80 2.70 3.78 2.70 2.95 3 -0.25 0.10 -0.90 -0.17 -1.73 -0.73 -0.75 -0.47 -1.40 -0.88 -1.45 -0.88 -0.05 0 -0.57 0.75 -1.17 1.70 -0.57 0.93 -1.15 1.75 -1.27 1.83 -0.10 0.08 0.35 0.50 1 0.93 1.67 1.08 1.98 1.48 1.52 1.95 -0.32 0.30 -0.73 0.13 -3.10 -1.45 z "></path>
        <path d="M 21.67 120.60 c -0.45 -0.45 -0.05 -0.82 1.63 -1.60 1.77 -0.82 1.77 -0.82 1.23 -1.30 -0.43 -0.32 -1 -0.45 -2.15 -0.45 -1.67 0 -2.88 -0.60 -2.88 -1.48 0 -0.70 0.30 -0.82 0.82 -0.35 0.28 0.28 1.08 0.50 2 0.60 0.85 0.08 1.75 0.22 2 0.32 0.32 0.15 0.43 0.10 0.43 -0.25 0 -0.60 1.25 -2.78 2.17 -3.72 0.70 -0.75 0.70 -0.75 0.77 -0.05 0.05 0.40 -0.17 1.10 -0.55 1.75 -1.15 1.88 -1.70 3.22 -1.48 3.45 0.13 0.13 0.98 -0.10 2.05 -0.57 1.52 -0.68 1.85 -0.75 2.03 -0.45 0.45 0.70 0.85 0.45 -4.57 2.97 -2.45 1.13 -3.22 1.40 -3.50 1.13 z "></path>
        <path d="M 145.52 119.78 c -1 -0.95 -1 -1.65 0.10 -3.92 0.47 -1 0.88 -1.92 0.88 -2.08 0 -0.57 1.10 -0.22 4.63 1.45 2.88 1.40 3.63 1.85 3.63 2.25 0 0.82 -0.40 0.82 -1.88 0.03 -0.75 -0.40 -1.52 -0.75 -1.70 -0.75 -0.20 0 -0.57 0.55 -0.90 1.23 -0.85 1.92 -1.55 2.53 -2.85 2.53 -0.90 0 -1.27 -0.15 -1.90 -0.73 z  m 2.90 -0.82 c 0.63 -0.70 1.33 -2.03 1.33 -2.55 0 -0.28 -2 -1.65 -2.42 -1.65 -0.25 0 -1.33 2.67 -1.33 3.30 0 0.70 0.77 1.45 1.50 1.45 0.22 0 0.65 -0.25 0.93 -0.55 z "></path>
        <path d="M 155.25 114 c -0.22 -0.13 -1.90 -0.73 -3.75 -1.38 -3.63 -1.23 -4.03 -1.45 -3.55 -1.92 0.22 -0.22 1.10 -0.03 3.83 0.90 1.95 0.65 3.63 1.10 3.72 0.98 0.32 -0.35 1.08 -2.58 0.93 -2.72 -0.08 -0.08 -1.40 -0.57 -2.95 -1.13 -3.67 -1.27 -3.97 -1.48 -3.97 -2.72 0 -0.52 0.13 -1.05 0.25 -1.13 0.40 -0.25 1 0.35 1 1 0 0.60 -0.20 0.50 4.75 2.22 1.02 0.38 2 0.75 2.17 0.85 0.35 0.22 -1.33 5.30 -1.77 5.30 -0.15 0 -0.45 -0.13 -0.65 -0.25 z "></path>
        <path d="M26.08 108.35 C 26.08 110.85 24.05 112.88 21.55 112.88 19.05 112.88 17.05 110.85 17.05 108.35 17.05 105.88 19.05 103.85 21.55 103.85 24.05 103.85 26.08 105.88 26.08 108.35 Z M19.33 112.28  M25 108.38 C 25 106.50 23.48 105 21.63 105 19.75 105 18.25 106.50 18.25 108.38 18.25 110.22 19.75 111.75 21.63 111.75 23.48 111.75 25 110.22 25 108.38 Z M23.73 110.68 "></path>
        <path d="M 150 103.68 c 0 -0.52 0.55 -0.93 1.27 -0.93 1.42 0 1.90 -0.38 2.20 -1.75 0.45 -2.10 0.40 -2.30 -0.85 -3.05 -1.05 -0.63 -1.35 -1.13 -0.98 -1.52 0.20 -0.17 1.30 0.40 4.10 2.20 1.17 0.75 2.55 1.60 3.08 1.88 2.05 1.13 1.45 1.85 -2.10 2.50 -1.42 0.28 -3.05 0.60 -3.60 0.73 -1.45 0.38 -3.13 0.35 -3.13 -0.05 z  m 7.97 -1.83 c 0.52 -0.10 0.40 -0.25 -1.10 -1.25 -0.93 -0.60 -1.77 -1.10 -1.90 -1.10 -0.15 0 -0.73 2.10 -0.73 2.63 0 0.13 2.78 -0.08 3.72 -0.28 z "></path>
        <path d="M 14.90 99.85 c -0.22 -1.48 -0.35 -2.72 -0.28 -2.83 0.15 -0.15 5.43 -1.17 7.38 -1.42 0.85 -0.13 1.23 -0.05 1.45 0.22 0.47 0.57 -0.10 0.80 -3.20 1.27 -5.07 0.77 -4.57 0.52 -4.38 2.13 0.10 0.77 0.28 1.48 0.43 1.55 0.13 0.08 1.55 -0.05 3.15 -0.30 1.60 -0.25 3.17 -0.45 3.50 -0.47 0.80 0 1.60 0.90 1.50 1.67 -0.10 0.90 -0.63 1 -0.98 0.22 -0.38 -0.80 -0.73 -0.80 -3.80 -0.17 -4.72 0.98 -4.30 1.15 -4.78 -1.88 z "></path>
        <path d="M 158.63 95.47 c -0.95 -0.10 -2.90 -0.17 -4.30 -0.20 -2.58 -0.03 -2.58 -0.03 -2.58 -0.65 0 -0.57 0.08 -0.63 1.20 -0.60 0.65 0 2.15 0.10 3.38 0.17 2.50 0.20 2.70 0.03 1.08 -1 -1.05 -0.68 -3.83 -2.78 -4.72 -3.58 -0.68 -0.60 -0.47 -1.52 0.32 -1.45 0.35 0.03 2.30 0.15 4.35 0.25 3.60 0.20 4.13 0.32 3.70 1 -0.15 0.25 -0.85 0.25 -3.10 0.05 -1.63 -0.15 -3.13 -0.22 -3.38 -0.17 -0.30 0.05 0.30 0.65 2.03 1.95 1.35 1.02 2.83 2.13 3.30 2.45 0.57 0.38 0.85 0.75 0.85 1.17 0 0.32 -0.08 0.63 -0.17 0.68 -0.13 0.05 -0.98 0.03 -1.95 -0.08 z "></path>
        <path d="M 22.17 94.07 c -0.10 -0.08 -0.17 -0.38 -0.17 -0.65 0 -0.50 -0.13 -0.50 -3.88 -0.35 -2.13 0.10 -3.90 0.08 -3.97 -0.03 -0.05 -0.10 -0.15 -1.35 -0.17 -2.80 -0.10 -2.63 -0.10 -2.63 3.72 -2.80 2.10 -0.08 4.13 -0.22 4.45 -0.30 0.57 -0.15 0.63 -0.10 0.55 0.52 -0.05 0.55 -0.20 0.70 -0.70 0.73 -0.35 0 -2.08 0.03 -3.83 0.05 -3.20 0.05 -3.20 0.05 -3.13 1.73 0.08 1.67 0.08 1.67 3.53 1.60 4.05 -0.08 4.68 0.13 4.68 1.60 0 0.68 -0.10 0.88 -0.45 0.88 -0.25 0 -0.55 -0.08 -0.63 -0.17 z "></path>
        <path d="M 149.68 86.40 c -0.20 -0.52 0.05 -0.65 1.23 -0.65 0.57 0 1.10 -0.13 1.15 -0.25 0.05 -0.15 -0.05 -1.63 -0.20 -3.33 -0.15 -1.67 -0.20 -3.13 -0.13 -3.20 0.13 -0.13 6.53 -0.77 8.27 -0.82 0.50 -0.03 0.63 0.10 0.63 0.60 0 0.73 0.20 0.68 -3.92 0.88 -1.75 0.10 -3.35 0.30 -3.55 0.45 -0.32 0.25 -0.35 0.65 -0.20 2.22 0.13 1.08 0.30 2.05 0.43 2.15 0.15 0.13 1.88 0.08 3.88 -0.10 2.75 -0.22 3.67 -0.25 3.80 -0.03 0.35 0.57 0.03 0.80 -1.20 0.85 -3.38 0.17 -6.22 0.63 -6.80 1.10 -0.75 0.60 -3.17 0.68 -3.38 0.13 z "></path>
        <path d="M 21.73 85.15 c -0.05 -0.05 -1.83 -0.25 -3.95 -0.43 -3.85 -0.30 -3.85 -0.30 -3.67 -2.58 0.25 -3.38 0.40 -4.15 0.82 -4.15 0.32 0 0.38 0.43 0.30 2.70 -0.10 2.67 -0.10 2.67 1.33 2.75 1.40 0.08 1.40 0.08 1.38 -0.63 -0.08 -1.85 0.10 -3.53 0.43 -3.95 0.32 -0.45 0.35 -0.45 0.57 0.03 0.13 0.28 0.17 1.35 0.08 2.47 -0.10 1.10 -0.10 2.08 -0.03 2.15 0.08 0.10 0.80 0.25 1.60 0.35 1.42 0.15 1.42 0.15 1.42 -1.83 0 -2.13 0.35 -3.55 0.88 -3.55 0.47 0 0.55 0.68 0.35 3 -0.32 3.28 -0.43 3.75 -0.95 3.75 -0.25 0 -0.50 -0.05 -0.55 -0.10 z "></path>
        <path d="M 23.20 77.82 c -0.22 -0.05 -0.60 -0.40 -0.82 -0.75 -0.52 -0.77 -2.88 -1.85 -5.38 -2.45 -1.02 -0.25 -1.90 -0.47 -1.95 -0.50 -0.05 -0.05 0.15 -0.98 0.43 -2.08 0.30 -1.10 0.52 -2.25 0.52 -2.55 0 -0.60 -0.35 -0.65 4.47 0.43 2.35 0.50 2.95 0.55 3.55 0.32 0.55 -0.22 1 -0.22 1.98 0 1.55 0.38 1.52 0.85 -0.03 0.95 -1.13 0.08 -1.13 0.08 -1.67 2.72 -0.30 1.45 -0.50 2.72 -0.40 2.80 0.08 0.08 0.47 0.28 0.93 0.43 1.20 0.40 1.15 0.85 -0.13 0.82 -0.57 -0.03 -1.27 -0.08 -1.50 -0.15 z  m 0.10 -3.88 c 0.30 -1.40 0.35 -1.90 0.13 -2.10 -0.17 -0.17 -1.60 -0.57 -3.17 -0.93 -2.20 -0.47 -2.95 -0.57 -3.15 -0.35 -0.45 0.47 -0.85 2.70 -0.50 2.80 2.95 0.82 5.40 1.70 5.65 2 0.17 0.20 0.38 0.38 0.47 0.38 0.08 0 0.35 -0.82 0.57 -1.80 z "></path>
        <path d="M159.40 72.18 C 159.40 74.65 157.38 76.65 154.90 76.65 152.43 76.65 150.43 74.65 150.43 72.18 150.43 69.70 152.43 67.68 154.90 67.68 157.38 67.68 159.40 69.70 159.40 72.18 Z M153.25 76.32  M158.20 72.13 C 158.20 70.28 156.70 68.78 154.85 68.78 152.98 68.78 151.48 70.28 151.48 72.13 151.48 74 152.98 75.50 154.85 75.50 156.70 75.50 158.20 74 158.20 72.13 Z M156.48 74.72 "></path>
        <path d="M 24.85 69.05 c -0.45 -0.32 -2.03 -2.40 -2.45 -3.25 -0.30 -0.57 -0.55 -0.80 -0.82 -0.70 -0.20 0.08 -1 0.22 -1.77 0.32 -0.98 0.10 -1.52 0.30 -1.75 0.63 -0.75 1.02 -1.65 0.17 -0.95 -0.93 0.43 -0.65 1.75 -1.13 3.20 -1.13 1.23 0 1.70 -0.22 1.70 -0.77 0 -0.32 -0.35 -0.55 -1.33 -0.88 -1.83 -0.57 -2.35 -0.98 -1.92 -1.48 0.43 -0.52 0.82 -0.47 2.28 0.28 2.30 1.15 2.55 0.22 0.57 -2 -0.88 -0.98 -1.10 -1.40 -1.10 -2.13 0 -1.15 0.17 -1.35 0.80 -1 0.35 0.20 0.45 0.43 0.35 0.85 -0.13 0.47 0.10 0.85 1.10 1.88 1.17 1.25 1.25 1.27 2.05 1.02 0.45 -0.15 1.45 -0.38 2.20 -0.52 0.75 -0.15 1.58 -0.32 1.80 -0.40 0.38 -0.13 0.40 -0.05 0.17 0.63 -0.20 0.52 -0.47 0.82 -0.93 0.93 -3.10 0.63 -4.18 1 -4.18 1.45 0 0.30 0.35 0.60 1.13 0.90 0.63 0.22 1.42 0.55 1.80 0.70 0.47 0.20 0.65 0.40 0.55 0.68 -0.20 0.52 -0.77 0.47 -2.50 -0.22 -0.80 -0.32 -1.55 -0.55 -1.65 -0.47 -0.50 0.30 -0.10 1.42 1.05 2.85 0.70 0.85 1.25 1.83 1.25 2.13 0 0.63 -0.28 0.90 -0.65 0.65 z "></path>
        <path d="M 149.38 66.80 c -1.02 -0.65 -1.55 -1.48 -1.75 -2.88 -0.22 -1.55 0.20 -2.70 1.35 -3.63 2.40 -1.92 5.10 -2.05 6.68 -0.28 1.17 1.30 1.40 3.95 0.45 5 -0.95 1.05 -1.75 0.20 -0.88 -0.93 0.65 -0.82 0.68 -1.75 0.05 -2.75 -1.27 -2.10 -5.47 -1.38 -6.53 1.15 -0.28 0.65 -0.25 0.93 0.10 1.88 0.45 1.13 0.57 1.20 2.22 1.50 0.80 0.13 0.95 0.25 0.88 0.70 -0.10 0.75 -1.52 0.88 -2.58 0.22 z "></path>
        <path d="M 32.70 51.30 c -2.50 -1.60 -6.18 -4.50 -6.20 -4.85 -0.03 -1 0.50 -0.82 2.90 0.93 0.47 0.35 0.57 0.30 1.85 -1.42 1.48 -1.98 1.58 -1.63 -0.85 -3.65 -0.65 -0.55 -0.68 -1.05 -0.05 -1.05 0.85 0 7.15 4.68 7.15 5.30 0 0.73 -0.80 0.52 -2.33 -0.55 -0.75 -0.55 -1.52 -1 -1.73 -1 -0.17 0 -0.65 0.57 -1.02 1.25 -0.40 0.70 -0.93 1.40 -1.20 1.58 -0.25 0.15 -0.47 0.35 -0.47 0.43 0 0.10 0.73 0.70 1.65 1.35 0.98 0.75 1.60 1.35 1.55 1.60 -0.10 0.57 -0.50 0.60 -1.25 0.10 z "></path>
        <path d="M 141 51.50 c 0 -0.43 2 -2.03 4.45 -3.55 1.48 -0.93 1.05 -1.05 -3.30 -0.88 -3.17 0.13 -4.15 0.10 -4.35 -0.15 -0.38 -0.45 -0.20 -0.65 2.20 -2.47 3.03 -2.30 4.40 -3.20 4.85 -3.20 0.85 0 0.32 0.70 -1.50 2.03 -1.05 0.73 -2.25 1.67 -2.67 2.05 -0.80 0.70 -0.80 0.70 3.47 0.55 2.72 -0.10 4.35 -0.08 4.45 0.08 0.30 0.50 -0.17 1.08 -1.83 2.25 -0.90 0.65 -2.35 1.70 -3.22 2.35 -1.48 1.13 -2.55 1.52 -2.55 0.95 z "></path>
        <path d="M 135.57 44.35 c -0.10 -0.28 0.55 -1.05 2.20 -2.60 1.30 -1.20 2.28 -2.28 2.17 -2.38 -0.15 -0.15 -2.95 0.28 -5.63 0.90 -1.58 0.35 -2.58 0.28 -2.75 -0.17 -0.10 -0.28 0.73 -1.27 2.83 -3.38 2.78 -2.78 3.53 -3.30 3.78 -2.55 0.10 0.30 -2.15 2.65 -3.60 3.78 -0.45 0.32 -0.82 0.75 -0.82 0.90 0 0.30 1.17 0.15 6.28 -0.85 1.75 -0.35 2.47 -0.25 2.47 0.32 0 0.40 -6.05 6.43 -6.47 6.43 -0.15 0 -0.35 -0.17 -0.45 -0.40 z "></path>
        <path d="M 35.55 41.47 c -2.50 -2.45 -3.03 -3.08 -2.78 -3.38 0.15 -0.20 0.38 -0.35 0.47 -0.35 0.10 0 1.17 1.02 2.40 2.25 1.20 1.25 2.28 2.25 2.38 2.25 0.10 0 0.08 -0.43 -0.03 -0.93 -1.17 -5.78 -1.35 -7.07 -0.95 -7.47 0.35 -0.35 0.68 -0.10 3.55 2.65 1.73 1.67 3.15 3.22 3.15 3.40 0 0.88 -1.15 0.22 -3.25 -1.88 -1.23 -1.23 -2.28 -2.10 -2.33 -1.95 -0.05 0.17 0.08 0.90 0.25 1.65 0.77 2.92 1.27 5.75 1.15 6.25 -0.08 0.28 -0.32 0.52 -0.55 0.52 -0.22 0 -1.77 -1.38 -3.47 -3.03 z "></path>
        <path d="M 147.68 43.95 c -0.55 -0.43 -0.93 -1.52 -0.75 -2.17 0.20 -0.77 0.57 -0.65 0.57 0.20 0 0.90 0.57 1.52 1.40 1.52 0.68 0 0.80 0.38 0.20 0.60 -0.60 0.22 -0.95 0.17 -1.42 -0.15 z "></path>
        <path d="M 129.73 38.47 c -0.17 -0.35 -0.20 -1.30 -0.10 -2.88 0.17 -2.10 0.15 -2.35 -0.25 -2.50 -0.30 -0.13 -0.57 -0.03 -0.80 0.30 -0.95 1.33 -1.98 2.35 -2.38 2.35 -0.25 0 -0.45 -0.10 -0.45 -0.20 0 -0.63 5 -7.18 5.47 -7.18 0.20 0 0.45 0.17 0.60 0.40 0.20 0.32 0.03 0.68 -0.77 1.65 -0.57 0.68 -1.05 1.38 -1.05 1.52 0 0.55 1.73 0.32 2.97 -0.38 1.23 -0.68 1.23 -0.68 2.13 -0.20 1.10 0.60 1.02 1.02 -0.13 0.95 -0.47 -0.05 -1.35 0.15 -1.98 0.40 -0.63 0.28 -1.33 0.55 -1.55 0.63 -0.32 0.10 -0.45 0.40 -0.45 1.15 0 1.42 -0.52 4.50 -0.77 4.50 -0.13 0 -0.32 -0.22 -0.50 -0.52 z "></path>
        <path d="M 44.30 36.63 c -0.28 -2.13 -0.20 -2.83 0.30 -3.17 0.17 -0.13 0.10 -0.20 -0.17 -0.20 -0.25 0 -1.13 -0.28 -1.95 -0.63 -1.10 -0.47 -1.73 -0.60 -2.38 -0.47 -0.98 0.17 -1.13 -0.13 -0.35 -0.90 0.68 -0.68 1.38 -0.63 3.10 0.25 2.58 1.30 3.08 0.98 1.63 -1.08 -1.08 -1.58 -1.23 -2.17 -0.50 -2.17 0.28 0 0.85 0.50 1.38 1.25 1.50 2.08 2.38 1.38 1.70 -1.33 -0.35 -1.38 -0.35 -1.50 0.13 -2.13 0.28 -0.38 0.75 -0.70 1.05 -0.75 0.55 -0.08 0.55 -0.08 0.17 0.68 -0.30 0.57 -0.35 1.17 -0.22 2.63 0.15 1.90 0.15 1.90 1.05 1.90 1.05 0.03 4.15 1.33 4.15 1.77 0 0.80 -0.80 0.80 -2.85 0 -3.33 -1.25 -3.83 -1.02 -2.28 1.08 1.85 2.53 1.05 3.35 -0.90 0.90 -0.65 -0.82 -1.27 -1.50 -1.38 -1.50 -0.50 0 -0.68 1.02 -0.55 3.05 0.15 2.10 -0.05 2.95 -0.68 2.95 -0.10 0 -0.30 -0.95 -0.45 -2.13 z "></path>
        <path d="M 121.13 32.42 c -1.67 -0.93 -2.25 -2.75 -1.58 -4.95 0.63 -2.13 3.08 -3.95 4.80 -3.58 1.15 0.22 2.38 1.08 2.92 1.95 0.55 0.93 0.63 2.53 0.13 2.72 -0.50 0.20 -0.65 -0.03 -0.65 -0.95 0 -1.08 -0.80 -2.05 -2 -2.40 -0.80 -0.25 -1.10 -0.22 -1.90 0.17 -1.08 0.52 -2.25 2.08 -2.50 3.28 -0.45 2.38 1.85 4.07 4 2.95 0.98 -0.50 1.15 -0.47 1.15 0.22 0 1.17 -2.67 1.55 -4.38 0.57 z "></path>
        <path d="M 53.63 29.55 c -0.55 -1.05 -1.40 -2.70 -1.92 -3.65 -0.95 -1.73 -1.05 -2.65 -0.32 -2.65 0.20 0 0.60 0.47 0.90 1.08 0.98 1.95 1.08 1.98 2.70 1.27 0.77 -0.35 1.60 -0.82 1.85 -1.08 0.45 -0.45 0.45 -0.50 -0.20 -1.88 -0.63 -1.33 -0.70 -2.15 -0.17 -2.15 0.13 0 0.35 0.15 0.50 0.32 0.43 0.52 4.05 7.75 3.92 7.88 -0.05 0.05 -0.38 0.05 -0.70 -0.05 -0.43 -0.10 -0.82 -0.60 -1.40 -1.77 -0.80 -1.65 -0.80 -1.65 -2.78 -0.60 -1.10 0.60 -2 1.15 -2 1.23 0 0.10 0.32 0.77 0.75 1.52 0.85 1.55 0.98 2.47 0.32 2.47 -0.30 0 -0.77 -0.65 -1.45 -1.95 z "></path>
        <path d="M 112.75 27.98 c -1.02 -0.43 -1.90 -0.80 -1.95 -0.82 -0.03 -0.05 0.57 -1.52 1.35 -3.30 0.77 -1.77 1.58 -3.60 1.75 -4.05 0.20 -0.47 0.50 -0.80 0.68 -0.73 4.10 1.63 4.68 2.08 4.68 3.60 0 0.70 -0.20 1.08 -0.93 1.75 -0.60 0.55 -0.82 0.93 -0.63 1 0.55 0.20 0.35 1.95 -0.32 2.67 -0.82 0.90 -2.20 0.85 -4.63 -0.13 z  m 3.70 -0.52 c 0.45 -0.45 0.38 -1.83 -0.13 -2.25 -0.25 -0.22 -0.98 -0.63 -1.65 -0.90 -1.17 -0.52 -1.17 -0.52 -1.80 0.70 -0.35 0.68 -0.63 1.33 -0.63 1.45 0 0.35 2.28 1.27 3.15 1.30 0.40 0 0.88 -0.13 1.05 -0.30 z  m 1.67 -4.82 c 0 -0.77 -0.65 -1.38 -2.20 -2 -0.95 -0.38 -0.95 -0.38 -1.42 0.77 -0.28 0.63 -0.50 1.23 -0.50 1.35 0 0.20 1.67 0.90 2.63 1.08 0.77 0.15 1.50 -0.43 1.50 -1.20 z "></path>
        <path d="M 62.53 26.95 c -0.75 -1.75 -2.75 -7.55 -2.65 -7.70 0.05 -0.08 1.40 -0.60 3 -1.13 2.45 -0.82 2.92 -0.93 3.13 -0.63 0.30 0.50 0.20 0.55 -2.13 1.35 -2.65 0.93 -2.70 0.98 -2.22 2.10 0.20 0.52 0.47 1.02 0.57 1.13 0.13 0.13 1.20 -0.10 2.40 -0.45 1.35 -0.43 2.28 -0.57 2.40 -0.45 0.32 0.32 -0.15 0.68 -1.38 1.08 -0.55 0.17 -1.48 0.52 -2.05 0.80 -1.08 0.45 -1.08 0.45 -0.73 1.65 0.20 0.65 0.38 1.20 0.38 1.25 0 0.20 1.25 -0.03 2.92 -0.57 2.25 -0.73 3.13 -0.80 2.92 -0.28 -0.08 0.20 -0.43 0.47 -0.80 0.63 -5.05 1.95 -5.45 2.03 -5.78 1.23 z "></path>
        <path d="M110.95 21.08 C 110.95 23.55 108.93 25.55 106.45 25.55 104 25.55 101.97 23.55 101.97 21.08 101.97 18.60 104 16.60 106.45 16.60 108.93 16.60 110.95 18.60 110.95 21.08 Z M105 25.42  M109.80 21.02 C 109.80 19.17 108.28 17.65 106.40 17.65 104.53 17.65 103 19.17 103 21.02 103 22.90 104.53 24.42 106.40 24.42 108.28 24.42 109.80 22.90 109.80 21.02 Z M107.70 24.25 "></path>
        <path d="M 70.20 23.08 c -0.22 -1.08 -0.65 -3 -0.95 -4.30 -0.28 -1.30 -0.47 -2.38 -0.43 -2.42 0.17 -0.17 3.58 -0.85 4.32 -0.85 1.63 0 2.63 1.80 1.85 3.28 -0.22 0.40 -0.17 0.52 0.38 0.73 1.52 0.57 1.67 3.55 0.20 4.25 -0.68 0.30 -4.20 1.25 -4.70 1.25 -0.15 0 -0.45 -0.88 -0.68 -1.92 z  m 3.05 0.30 c 2.03 -0.40 2.70 -1.35 1.85 -2.58 -0.30 -0.45 -0.63 -0.55 -1.60 -0.55 -0.68 0 -1.52 0.13 -1.88 0.25 -0.65 0.25 -0.68 0.30 -0.50 1.58 0.22 1.58 0.30 1.73 0.82 1.58 0.25 -0.05 0.82 -0.20 1.30 -0.28 z  m 0.63 -4.63 c 0.45 -0.38 0.50 -1.52 0.08 -1.95 -0.38 -0.38 -1.88 -0.38 -2.97 -0.03 -0.47 0.17 -0.88 0.32 -0.90 0.35 -0.05 0.03 0.32 1.60 0.55 2.30 0.13 0.35 2.65 -0.17 3.25 -0.68 z "></path>
        <path d="M 77.75 22.90 c 0 -0.45 0.17 -1.33 0.40 -1.92 0.20 -0.60 0.70 -2.33 1.10 -3.85 0.68 -2.65 0.73 -2.75 1.40 -2.83 0.70 -0.05 0.80 0.10 2.83 4.07 1.45 2.83 2.05 4.20 1.88 4.38 -0.43 0.43 -0.95 0.05 -1.60 -1.20 -0.63 -1.17 -0.63 -1.17 -2.22 -1.10 -1.83 0.05 -2.17 0.25 -2.38 1.38 -0.17 0.90 -0.80 1.92 -1.17 1.92 -0.13 0 -0.22 -0.38 -0.22 -0.85 z  m 4.75 -3.58 c 0.05 -0.05 -0.32 -0.95 -0.85 -2.03 -0.98 -1.92 -0.98 -1.92 -1.27 -0.43 -0.17 0.82 -0.40 1.80 -0.50 2.17 -0.17 0.68 -0.17 0.68 1.17 0.52 0.73 -0.08 1.38 -0.20 1.45 -0.25 z "></path>
        <path d="M 96.93 23.40 c -0.08 -0.20 -0.10 -0.55 -0.03 -0.82 0.25 -1 1.02 -6.70 0.95 -6.88 -0.05 -0.08 -0.68 -0.22 -1.35 -0.32 -1.27 -0.17 -1.80 -0.52 -1.27 -0.85 0.32 -0.20 6.22 0.50 6.72 0.80 0.15 0.13 0.30 0.38 0.30 0.60 0 0.32 -0.25 0.35 -1.63 0.20 -0.90 -0.08 -1.63 -0.13 -1.63 -0.08 -0.38 2.75 -1.02 6.50 -1.23 7.03 -0.28 0.73 -0.65 0.88 -0.85 0.32 z "></path>
        <path d="M 86.75 19.58 c 0 -1.77 0.08 -3.80 0.17 -4.53 0.15 -1.33 0.15 -1.33 2.42 -1.17 3.05 0.22 3.95 0.68 4.25 2.05 0.25 1.23 -0.13 2.45 -0.93 2.88 -0.28 0.13 -1.42 0.30 -2.53 0.35 -2.03 0.08 -2.03 0.08 -2.10 1.85 -0.08 1.67 -0.10 1.75 -0.68 1.75 -0.63 0 -0.63 0 -0.63 -3.17 z  m 4.68 -1.60 c 0.88 -0.32 1.08 -0.63 1.08 -1.67 0 -0.63 -0.13 -0.88 -0.60 -1.05 -0.63 -0.22 -3.33 -0.43 -3.50 -0.22 -0.05 0.05 -0.15 0.73 -0.17 1.48 -0.08 1.35 -0.05 1.38 0.65 1.52 1.17 0.25 1.80 0.25 2.55 -0.05 z "></path>
        </g>
    </symbol>

    <!-- Поиск -->
    <symbol id="search" viewBox="0 0 20 21" fill="none">
        <path d="M7.39687 15.2937C5.32954 15.2937 3.5799 14.5778 2.14794 13.1458C0.715979 11.7138 0 9.9642 0 7.89687C0 5.82954 0.715979 4.0799 2.14794 2.64794C3.5799 1.21598 5.32954 0.5 7.39687 0.5C9.4642 0.5 11.2138 1.21598 12.6458 2.64794C14.0778 4.0799 14.7937 5.82954 14.7937 7.89687C14.7937 8.73139 14.661 9.51849 14.3954 10.2582C14.1299 10.9979 13.7696 11.6522 13.3144 12.2212L19.6871 18.5939C19.8957 18.8025 20 19.068 20 19.3905C20 19.7129 19.8957 19.9784 19.6871 20.1871C19.4784 20.3957 19.2129 20.5 18.8905 20.5C18.568 20.5 18.3025 20.3957 18.0939 20.1871L11.7212 13.8144C11.1522 14.2696 10.4979 14.6299 9.75818 14.8954C9.01849 15.161 8.23139 15.2937 7.39687 15.2937ZM7.39687 13.0178C8.81935 13.0178 10.0285 12.5199 11.0242 11.5242C12.0199 10.5285 12.5178 9.31935 12.5178 7.89687C12.5178 6.4744 12.0199 5.26529 11.0242 4.26956C10.0285 3.27383 8.81935 2.77596 7.39687 2.77596C5.9744 2.77596 4.76529 3.27383 3.76956 4.26956C2.77383 5.26529 2.27596 6.4744 2.27596 7.89687C2.27596 9.31935 2.77383 10.5285 3.76956 11.5242C4.76529 12.5199 5.9744 13.0178 7.39687 13.0178Z" fill="white"/>
    </symbol>

    <!-- Версия для слабовидящих -->
    <symbol id="visually-impaired" viewBox="0 0 20 21" fill="none">
        <path d="M10 15.125C11.1547 15.125 12.1363 14.7057 12.9446 13.8672C13.7529 13.0286 14.157 12.0104 14.157 10.8125C14.157 9.61458 13.7529 8.59635 12.9446 7.75781C12.1363 6.91927 11.1547 6.5 10 6.5C8.84527 6.5 7.86374 6.91927 7.05543 7.75781C6.24711 8.59635 5.84296 9.61458 5.84296 10.8125C5.84296 12.0104 6.24711 13.0286 7.05543 13.8672C7.86374 14.7057 8.84527 15.125 10 15.125ZM10 13.4C9.30716 13.4 8.71825 13.1484 8.23326 12.6453C7.74827 12.1422 7.50577 11.5312 7.50577 10.8125C7.50577 10.0938 7.74827 9.48281 8.23326 8.97969C8.71825 8.47656 9.30716 8.225 10 8.225C10.6928 8.225 11.2818 8.47656 11.7667 8.97969C12.2517 9.48281 12.4942 10.0938 12.4942 10.8125C12.4942 11.5312 12.2517 12.1422 11.7667 12.6453C11.2818 13.1484 10.6928 13.4 10 13.4ZM10 18C7.85989 18 5.90454 17.413 4.13395 16.2391C2.36336 15.0651 1.02386 13.4799 0.115473 11.4833C0.0692841 11.4035 0.0384911 11.3036 0.0230947 11.1839C0.00769823 11.0641 0 10.9403 0 10.8125C0 10.6847 0.00769823 10.5609 0.0230947 10.4411C0.0384911 10.3214 0.0692841 10.2215 0.115473 10.1417C1.02386 8.14514 2.36336 6.5599 4.13395 5.38594C5.90454 4.21198 7.85989 3.625 10 3.625C12.1401 3.625 14.0955 4.21198 15.8661 5.38594C17.6366 6.5599 18.9761 8.14514 19.8845 10.1417C19.9307 10.2215 19.9615 10.3214 19.9769 10.4411C19.9923 10.5609 20 10.6847 20 10.8125C20 10.9403 19.9923 11.0641 19.9769 11.1839C19.9615 11.3036 19.9307 11.4035 19.8845 11.4833C18.9761 13.4799 17.6366 15.0651 15.8661 16.2391C14.0955 17.413 12.1401 18 10 18ZM10 16.0833C11.7398 16.0833 13.3372 15.6082 14.7921 14.6578C16.2471 13.7075 17.3595 12.4257 18.1293 10.8125C17.3595 9.19931 16.2471 7.91753 14.7921 6.96719C13.3372 6.01684 11.7398 5.54167 10 5.54167C8.2602 5.54167 6.66282 6.01684 5.20785 6.96719C3.75289 7.91753 2.64049 9.19931 1.87067 10.8125C2.64049 12.4257 3.75289 13.7075 5.20785 14.6578C6.66282 15.6082 8.2602 16.0833 10 16.0833Z" fill="white"/>
    </symbol>

    <!-- Личный кабинет -->
    <symbol id="personal-account" viewBox="0 0 20 21" fill="none">
        <path d="M10 10.5C8.625 10.5 7.44792 10.0104 6.46875 9.03125C5.48958 8.05208 5 6.875 5 5.5C5 4.125 5.48958 2.94792 6.46875 1.96875C7.44792 0.989583 8.625 0.5 10 0.5C11.375 0.5 12.5521 0.989583 13.5312 1.96875C14.5104 2.94792 15 4.125 15 5.5C15 6.875 14.5104 8.05208 13.5312 9.03125C12.5521 10.0104 11.375 10.5 10 10.5ZM17.5 20.5H2.5C1.8125 20.5 1.22396 20.2552 0.734375 19.7656C0.244792 19.276 0 18.6875 0 18V17C0 16.2917 0.182292 15.6406 0.546875 15.0469C0.911458 14.4531 1.39583 14 2 13.6875C3.29167 13.0417 4.60417 12.5573 5.9375 12.2344C7.27083 11.9115 8.625 11.75 10 11.75C11.375 11.75 12.7292 11.9115 14.0625 12.2344C15.3958 12.5573 16.7083 13.0417 18 13.6875C18.6042 14 19.0885 14.4531 19.4531 15.0469C19.8177 15.6406 20 16.2917 20 17V18C20 18.6875 19.7552 19.276 19.2656 19.7656C18.776 20.2552 18.1875 20.5 17.5 20.5ZM2.5 18H17.5V17C17.5 16.7708 17.4427 16.5625 17.3281 16.375C17.2135 16.1875 17.0625 16.0417 16.875 15.9375C15.75 15.375 14.6146 14.9531 13.4688 14.6719C12.3229 14.3906 11.1667 14.25 10 14.25C8.83333 14.25 7.67708 14.3906 6.53125 14.6719C5.38542 14.9531 4.25 15.375 3.125 15.9375C2.9375 16.0417 2.78646 16.1875 2.67188 16.375C2.55729 16.5625 2.5 16.7708 2.5 17V18ZM10 8C10.6875 8 11.276 7.75521 11.7656 7.26563C12.2552 6.77604 12.5 6.1875 12.5 5.5C12.5 4.8125 12.2552 4.22396 11.7656 3.73438C11.276 3.24479 10.6875 3 10 3C9.3125 3 8.72396 3.24479 8.23438 3.73438C7.74479 4.22396 7.5 4.8125 7.5 5.5C7.5 6.1875 7.74479 6.77604 8.23438 7.26563C8.72396 7.75521 9.3125 8 10 8Z" fill="white"/>
    </symbol>

    <!-- Стрелочка выпадающего меню -->
    <symbol id="checkmark" viewBox="0 0 24 24" fill="none" xmlns="http://www.w3.org/2000/svg">
        <g stroke-width="0"/>
        <g stroke-linecap="round" stroke-linejoin="round"/>
        <g>
            <path d="M12 22C17.5228 22 22 17.5228 22 12C22 6.47715 17.5228 2 12 2C6.47715 2 2 6.47715 2 12C2 17.5228 6.47715 22 12 22Z" stroke="#ffffff" stroke-width="1.5" stroke-miterlimit="10" stroke-linecap="round" stroke-linejoin="round"/>
            <path d="M8.46997 10.74L12 14.26L15.53 10.74" stroke="#ffffff" stroke-width="1.5" stroke-linecap="round" stroke-linejoin="round"/>
        </g>
    </symbol>

    <!-- Стрелочка-ссылка -->
    <symbol id="arrow-circle" viewBox="0 0 48 48">
        <rect width="48" height="48" fill="white" fill-opacity="0.01"/>
        <path d="M24 44C35.0457 44 44 35.0457 44 24C44 12.9543 35.0457 4 24 4C12.9543 4 4 12.9543 4 24C4 35.0457 12.9543 44 24 44Z" fill="#0068b3" stroke="#007dd6" stroke-width="4" stroke-linejoin="round"/>
        <path d="M14.4917 24.5H32.4917" stroke="white" stroke-width="4" stroke-linecap="round" stroke-linejoin="round"/>
        <path d="M23.4917 15.5L32.4917 24.5L23.4917 33.5" stroke="white" stroke-width="4" stroke-linecap="round" stroke-linejoin="round"/>
    </symbol>

    <!-- Стрелочка вправо (Без палочки) -->
    <symbol id="icon-arrow-right_1" viewBox="0 0 24 24" fill="none" stroke="currentColor">
        <g id="SVGRepo_bgCarrier" stroke-width="0"/>
        <g id="SVGRepo_tracerCarrier" stroke-linecap="round" stroke-linejoin="round" stroke="#CCCCCC" stroke-width="0.048"/>
        <g id="SVGRepo_iconCarrier">
        <path d="M13 15L15.913 12.087V12.087C15.961 12.039 15.961 11.961 15.913 11.913V11.913L13 9" stroke="#ffffff" stroke-width="1.56" stroke-linecap="round" stroke-linejoin="round"/> </g>
    </symbol>

    <!-- Стрелочка вправо (С палочкой) -->
    <symbol id="icon-arrow-right_2" viewBox="0 0 24 24" fill="none" stroke="currentColor">
        <g id="SVGRepo_bgCarrier" stroke-width="0"/>
        <g id="SVGRepo_tracerCarrier" stroke-linecap="round" stroke-linejoin="round" stroke="#CCCCCC" stroke-width="0.048"/>
        <g id="SVGRepo_iconCarrier">
        <path d="M16 12L8 12" stroke="#ffffff" stroke-width="1.56" stroke-linecap="round" stroke-linejoin="round"/>
        <path d="M13 15L15.913 12.087V12.087C15.961 12.039 15.961 11.961 15.913 11.913V11.913L13 9" stroke="#ffffff" stroke-width="1.56" stroke-linecap="round" stroke-linejoin="round"/> </g>
    </symbol>

    <!-- Иконка Телеграмма -->
    <symbol id="telegram" viewBox="0 0 48 48">
        <path d="M41.4193 7.30899C41.4193 7.30899 45.3046 5.79399 44.9808 9.47328C44.8729 10.9883 43.9016 16.2908 43.1461 22.0262L40.5559 39.0159C40.5559 39.0159 40.3401 41.5048 38.3974 41.9377C36.4547 42.3705 33.5408 40.4227 33.0011 39.9898C32.5694 39.6652 24.9068 34.7955 22.2086 32.4148C21.4531 31.7655 20.5897 30.4669 22.3165 28.9519L33.6487 18.1305C34.9438 16.8319 36.2389 13.8019 30.8426 17.4812L15.7331 27.7616C15.7331 27.7616 14.0063 28.8437 10.7686 27.8698L3.75342 25.7055C3.75342 25.7055 1.16321 24.0823 5.58815 22.459C16.3807 17.3729 29.6555 12.1786 41.4193 7.30899Z"/>
    </symbol>

    <!-- Иконка VK -->
    <symbol id="vk" viewBox="-2.5 0 32 32">
        <path d="M16.563 15.75c-0.5-0.188-0.5-0.906-0.531-1.406-0.125-1.781 0.5-4.5-0.25-5.656-0.531-0.688-3.094-0.625-4.656-0.531-0.438 0.063-0.969 0.156-1.344 0.344s-0.75 0.5-0.75 0.781c0 0.406 0.938 0.344 1.281 0.875 0.375 0.563 0.375 1.781 0.375 2.781 0 1.156-0.188 2.688-0.656 2.75-0.719 0.031-1.125-0.688-1.5-1.219-0.75-1.031-1.5-2.313-2.063-3.563-0.281-0.656-0.438-1.375-0.844-1.656-0.625-0.438-1.75-0.469-2.844-0.438-1 0.031-2.438-0.094-2.719 0.5-0.219 0.656 0.25 1.281 0.5 1.813 1.281 2.781 2.656 5.219 4.344 7.531 1.563 2.156 3.031 3.875 5.906 4.781 0.813 0.25 4.375 0.969 5.094 0 0.25-0.375 0.188-1.219 0.313-1.844s0.281-1.25 0.875-1.281c0.5-0.031 0.781 0.406 1.094 0.719 0.344 0.344 0.625 0.625 0.875 0.938 0.594 0.594 1.219 1.406 1.969 1.719 1.031 0.438 2.625 0.313 4.125 0.25 1.219-0.031 2.094-0.281 2.188-1 0.063-0.563-0.563-1.375-0.938-1.844-0.938-1.156-1.375-1.5-2.438-2.563-0.469-0.469-1.063-0.969-1.063-1.531-0.031-0.344 0.25-0.656 0.5-1 1.094-1.625 2.188-2.781 3.188-4.469 0.281-0.5 0.938-1.656 0.688-2.219-0.281-0.625-1.844-0.438-2.813-0.438-1.25 0-2.875-0.094-3.188 0.156-0.594 0.406-0.844 1.063-1.125 1.688-0.625 1.438-1.469 2.906-2.344 4-0.313 0.375-0.906 1.156-1.25 1.031z"/>
    </symbol>

    <!-- Иконка Одноклассников -->
    <symbol id="odnoklassniki" viewBox="0 0 512 512">
        <path stroke="#ffffff" d="M256.018,259.156c71.423,0,129.31-57.899,129.31-129.334C385.327,58.387,327.44,0.5,256.018,0.5 c-71.448,0-129.359,57.887-129.359,129.322C126.658,201.257,184.57,259.156,256.018,259.156z M256.018,66.196 c35.131,0,63.612,28.482,63.612,63.625c0,35.144-28.481,63.625-63.612,63.625c-35.168,0-63.638-28.481-63.638-63.625 C192.38,94.678,220.849,66.196,256.018,66.196z M405.075,274.938c-7.285-14.671-27.508-26.872-54.394-5.701 c-36.341,28.619-94.664,28.619-94.664,28.619s-58.361,0-94.702-28.619c-26.873-21.171-47.083-8.97-54.381,5.701 c-12.75,25.563,1.634,37.926,34.096,58.761c27.721,17.803,65.821,24.452,90.411,26.935l-20.535,20.535 c-28.918,28.905-56.826,56.838-76.201,76.213c-11.59,11.577-11.59,30.354,0,41.931l3.48,3.506c11.59,11.577,30.354,11.577,41.943,0 l76.201-76.214c28.943,28.919,56.851,56.839,76.225,76.214c11.59,11.577,30.354,11.577,41.943,0l3.48-3.506 c11.59-11.59,11.59-30.354,0-41.943l-76.201-76.2l-20.584-20.598c24.614-2.545,62.29-9.22,89.786-26.872 C403.441,312.863,417.801,300.5,405.075,274.938z"/>
    </symbol>

    <!-- Кнопка в начало страницы -->
    <symbol id="back-to-top" viewBox="-2.4 -2.4 28.80 28.80" fill="none" xmlns="http://www.w3.org/2000/svg">
        <g stroke-width="0" transform="translate(4.800000000000001,4.800000000000001), scale(0.6)">
            <rect x="-2.4" y="-2.4" width="28.80" height="28.80" rx="8.352" fill="#007dd5" stroke-width="0"/>
        </g>
        <g stroke-linecap="round" stroke-linejoin="round" stroke="#CCCCCC" stroke-width="0.24000000000000005"/>
        <g>
            <path d="M3 12C3 4.5885 4.5885 3 12 3C19.4115 3 21 4.5885 21 12C21 19.4115 19.4115 21 12 21C4.5885 21 3 19.4115 3 12Z" stroke="#ffffff" stroke-width="2"/>
            <path d="M12 8L12 16" stroke="#ffffff" stroke-width="2" stroke-linecap="round" stroke-linejoin="round"/>
            <path d="M15 11L12.087 8.08704V8.08704C12.039 8.03897 11.961 8.03897 11.913 8.08704V8.08704L9 11" stroke="#ffffff" stroke-width="2" stroke-linecap="round" stroke-linejoin="round"/>
        </g>
    </symbol>

    <!-- Почта e-mail -->
    <symbol id="e-mail" viewBox="0 0 497 511.86">
        <path fill-rule="nonzero" d="M497 227.28c0 29.39-4.56 56.35-13.58 80.75-9.13 24.51-22.07 43.5-38.62 56.98-16.56 13.47-35.66 20.16-57.2 20.16-17.82 0-32.78-5.41-45.09-16.13-12.2-10.82-19.42-24.62-21.75-41.38h-2.44c-8.28 18.04-20.16 32.15-35.66 42.34-15.38 10.07-33.73 15.17-54.85 15.17-31.09 0-55.39-10.62-72.9-31.83-17.5-21.23-26.21-50.08-26.21-86.59 0-42.23 12.21-76.61 36.61-103.03 24.51-26.42 56.66-39.58 96.45-39.58 14.01 0 30.03 1.28 47.86 3.93 17.82 2.55 33.85 6.16 48.17 10.72l-7.75 146v6.79c0 36.92 13.8 55.39 41.28 55.39 18.89 0 34.27-11.14 46.05-33.43 11.78-22.28 17.72-51.24 17.72-86.89 0-37.57-7.64-70.35-23.03-98.58-15.28-28.22-37.13-49.87-65.47-65.15-28.22-15.17-60.69-22.81-97.4-22.81-46.26 0-86.48 9.55-120.64 28.75-34.17 19.21-60.27 46.59-78.31 82.13-18.04 35.54-27.05 76.61-27.05 123.29 0 63.25 16.65 111.84 50.08 145.9 33.32 33.96 81.38 50.93 144.19 50.93 43.51 0 88.71-8.91 135.5-26.74v41.38c-39.79 17.41-84.89 26.11-135.5 26.11-75.23 0-133.58-20.7-175.18-62.08C20.69 408.51 0 350.68 0 276.41c0-53.9 11.04-101.86 33.21-143.99 22.18-42.01 53.8-74.59 94.86-97.72C169.03 11.57 216.14 0 269.19 0c44.56 0 84.14 9.34 118.95 28.12 34.69 18.78 61.53 45.41 80.42 79.9 19 34.48 28.44 74.27 28.44 119.26zm-321.4 40.75c0 52.62 20.17 78.94 60.59 78.94 42.97 0 66.21-32.47 69.93-97.3l4.45-81.07c-14.96-4.14-31.19-6.26-48.81-6.26-26.95 0-48.06 9.34-63.34 28.02-15.18 18.56-22.82 44.56-22.82 77.67z"/>
    </symbol>

    <!-- Сферум -->


</svg>
