<svg width="20" height="21" viewBox="0 0 20 21" fill="none" xmlns="http://www.w3.org/2000/svg">
<path d="M10 15.125C11.1547 15.125 12.1363 14.7057 12.9446 13.8672C13.7529 13.0286 14.157 12.0104 14.157 10.8125C14.157 9.61458 13.7529 8.59635 12.9446 7.75781C12.1363 6.91927 11.1547 6.5 10 6.5C8.84527 6.5 7.86374 6.91927 7.05543 7.75781C6.24711 8.59635 5.84296 9.61458 5.84296 10.8125C5.84296 12.0104 6.24711 13.0286 7.05543 13.8672C7.86374 14.7057 8.84527 15.125 10 15.125ZM10 13.4C9.30716 13.4 8.71825 13.1484 8.23326 12.6453C7.74827 12.1422 7.50577 11.5312 7.50577 10.8125C7.50577 10.0938 7.74827 9.48281 8.23326 8.97969C8.71825 8.47656 9.30716 8.225 10 8.225C10.6928 8.225 11.2818 8.47656 11.7667 8.97969C12.2517 9.48281 12.4942 10.0938 12.4942 10.8125C12.4942 11.5312 12.2517 12.1422 11.7667 12.6453C11.2818 13.1484 10.6928 13.4 10 13.4ZM10 18C7.85989 18 5.90454 17.413 4.13395 16.2391C2.36336 15.0651 1.02386 13.4799 0.115473 11.4833C0.0692841 11.4035 0.0384911 11.3036 0.0230947 11.1839C0.00769823 11.0641 0 10.9403 0 10.8125C0 10.6847 0.00769823 10.5609 0.0230947 10.4411C0.0384911 10.3214 0.0692841 10.2215 0.115473 10.1417C1.02386 8.14514 2.36336 6.5599 4.13395 5.38594C5.90454 4.21198 7.85989 3.625 10 3.625C12.1401 3.625 14.0955 4.21198 15.8661 5.38594C17.6366 6.5599 18.9761 8.14514 19.8845 10.1417C19.9307 10.2215 19.9615 10.3214 19.9769 10.4411C19.9923 10.5609 20 10.6847 20 10.8125C20 10.9403 19.9923 11.0641 19.9769 11.1839C19.9615 11.3036 19.9307 11.4035 19.8845 11.4833C18.9761 13.4799 17.6366 15.0651 15.8661 16.2391C14.0955 17.413 12.1401 18 10 18ZM10 16.0833C11.7398 16.0833 13.3372 15.6082 14.7921 14.6578C16.2471 13.7075 17.3595 12.4257 18.1293 10.8125C17.3595 9.19931 16.2471 7.91753 14.7921 6.96719C13.3372 6.01684 11.7398 5.54167 10 5.54167C8.2602 5.54167 6.66282 6.01684 5.20785 6.96719C3.75289 7.91753 2.64049 9.19931 1.87067 10.8125C2.64049 12.4257 3.75289 13.7075 5.20785 14.6578C6.66282 15.6082 8.2602 16.0833 10 16.0833Z" fill="white"/>
</svg>
